<mxfile host="Electron" modified="2024-07-03T16:13:29.448Z" agent="Mozilla/5.0 (Macintosh; Intel Mac OS X 10_15_7) AppleWebKit/537.36 (KHTML, like Gecko) draw.io/24.6.1 Chrome/124.0.6367.207 Electron/30.0.6 Safari/537.36" etag="U7_cleByJKhIWrbzl-a9" version="24.6.1" type="device">
  <diagram name="Page-1" id="74e2e168-ea6b-b213-b513-2b3c1d86103e">
    <mxGraphModel dx="3105" dy="2195" grid="0" gridSize="10" guides="1" tooltips="1" connect="1" arrows="1" fold="1" page="1" pageScale="1" pageWidth="1100" pageHeight="850" background="none" math="0" shadow="0">
      <root>
        <mxCell id="0" />
        <mxCell id="1" parent="0" />
        <mxCell id="77e6c97f196da883-1" value="로그인" style="swimlane;html=1;childLayout=stackLayout;startSize=20;rounded=0;shadow=0;labelBackgroundColor=none;strokeWidth=1;fontFamily=Verdana;fontSize=14;align=center;" parent="1" vertex="1">
          <mxGeometry x="90" y="20" width="1212.5" height="750" as="geometry" />
        </mxCell>
        <mxCell id="77e6c97f196da883-26" style="edgeStyle=orthogonalEdgeStyle;rounded=1;html=1;labelBackgroundColor=none;startArrow=none;startFill=0;startSize=5;endArrow=classicThin;endFill=1;endSize=5;jettySize=auto;orthogonalLoop=1;strokeWidth=1;fontFamily=Verdana;fontSize=8;entryX=0;entryY=0.5;entryDx=0;entryDy=0;" parent="77e6c97f196da883-1" source="77e6c97f196da883-8" target="_-b6Wf-rLav5tkxfngCv-1" edge="1">
          <mxGeometry relative="1" as="geometry">
            <mxPoint x="190" y="80" as="targetPoint" />
            <Array as="points">
              <mxPoint x="170" y="80" />
            </Array>
          </mxGeometry>
        </mxCell>
        <mxCell id="77e6c97f196da883-2" value="Client" style="swimlane;html=1;startSize=20;fontSize=14;" parent="77e6c97f196da883-1" vertex="1">
          <mxGeometry y="20" width="160" height="730" as="geometry" />
        </mxCell>
        <mxCell id="77e6c97f196da883-8" value="GET&lt;br style=&quot;font-size: 8px;&quot;&gt;/goodsone1/login" style="rounded=1;whiteSpace=wrap;html=1;shadow=0;labelBackgroundColor=none;strokeWidth=1;fontFamily=Verdana;fontSize=8;align=center;" parent="77e6c97f196da883-2" vertex="1">
          <mxGeometry x="15" y="30" width="130" height="60" as="geometry" />
        </mxCell>
        <mxCell id="_-b6Wf-rLav5tkxfngCv-128" style="edgeStyle=orthogonalEdgeStyle;shape=connector;curved=0;rounded=1;orthogonalLoop=1;jettySize=auto;html=1;entryX=0.5;entryY=0;entryDx=0;entryDy=0;shadow=0;strokeColor=default;align=center;verticalAlign=middle;fontFamily=Helvetica;fontSize=8;fontColor=default;labelBackgroundColor=default;resizable=0;endArrow=classic;flowAnimation=0;" parent="77e6c97f196da883-2" source="_-b6Wf-rLav5tkxfngCv-10" target="_-b6Wf-rLav5tkxfngCv-18" edge="1">
          <mxGeometry relative="1" as="geometry" />
        </mxCell>
        <mxCell id="_-b6Wf-rLav5tkxfngCv-10" value="login.jsp" style="rounded=1;whiteSpace=wrap;html=1;shadow=0;labelBackgroundColor=none;strokeWidth=1;fontFamily=Verdana;fontSize=8;align=center;" parent="77e6c97f196da883-2" vertex="1">
          <mxGeometry x="47.5" y="400" width="65" height="30" as="geometry" />
        </mxCell>
        <mxCell id="_-b6Wf-rLav5tkxfngCv-16" value="home.jsp" style="rounded=1;whiteSpace=wrap;html=1;shadow=0;labelBackgroundColor=none;strokeWidth=1;fontFamily=Verdana;fontSize=8;align=center;" parent="77e6c97f196da883-2" vertex="1">
          <mxGeometry x="47.5" y="350" width="65" height="30" as="geometry" />
        </mxCell>
        <mxCell id="_-b6Wf-rLav5tkxfngCv-18" value="POST&lt;br&gt;/goodsond1/loginByEmail" style="rounded=1;whiteSpace=wrap;html=1;shadow=0;labelBackgroundColor=none;strokeWidth=1;fontFamily=Verdana;fontSize=8;align=center;" parent="77e6c97f196da883-2" vertex="1">
          <mxGeometry x="15" y="450" width="130" height="60" as="geometry" />
        </mxCell>
        <mxCell id="77e6c97f196da883-3" value="AuthInterceptor" style="swimlane;html=1;startSize=20;fontSize=14;" parent="77e6c97f196da883-1" vertex="1">
          <mxGeometry x="160" y="20" width="230" height="730" as="geometry" />
        </mxCell>
        <mxCell id="_-b6Wf-rLav5tkxfngCv-1" value="if (session.getAttribute(&quot;user&quot;) != null)&amp;nbsp;" style="rhombus;whiteSpace=wrap;html=1;rounded=0;shadow=0;labelBackgroundColor=none;strokeWidth=1;fontFamily=Verdana;fontSize=8;align=center;" parent="77e6c97f196da883-3" vertex="1">
          <mxGeometry x="10" y="45" width="210" height="90" as="geometry" />
        </mxCell>
        <mxCell id="77e6c97f196da883-9" value="return true;" style="rounded=1;whiteSpace=wrap;html=1;shadow=0;labelBackgroundColor=none;strokeWidth=1;fontFamily=Verdana;fontSize=8;align=center;" parent="77e6c97f196da883-3" vertex="1">
          <mxGeometry x="120" y="170" width="100" height="60" as="geometry" />
        </mxCell>
        <mxCell id="77e6c97f196da883-27" style="edgeStyle=orthogonalEdgeStyle;rounded=1;html=1;labelBackgroundColor=none;startArrow=none;startFill=0;startSize=5;endArrow=classicThin;endFill=1;endSize=5;jettySize=auto;orthogonalLoop=1;strokeWidth=1;fontFamily=Verdana;fontSize=8;exitX=0.5;exitY=1;exitDx=0;exitDy=0;entryX=0.5;entryY=0;entryDx=0;entryDy=0;" parent="77e6c97f196da883-3" source="_-b6Wf-rLav5tkxfngCv-1" target="77e6c97f196da883-9" edge="1">
          <mxGeometry relative="1" as="geometry">
            <Array as="points">
              <mxPoint x="115" y="150" />
              <mxPoint x="170" y="150" />
            </Array>
            <mxPoint x="80" y="90" as="sourcePoint" />
          </mxGeometry>
        </mxCell>
        <mxCell id="_-b6Wf-rLav5tkxfngCv-2" value="false" style="edgeLabel;html=1;align=center;verticalAlign=middle;resizable=0;points=[];fontSize=8;" parent="77e6c97f196da883-27" vertex="1" connectable="0">
          <mxGeometry x="-0.4932" relative="1" as="geometry">
            <mxPoint x="25" as="offset" />
          </mxGeometry>
        </mxCell>
        <mxCell id="77e6c97f196da883-12" value="response.&lt;div&gt;sendRedirect&lt;/div&gt;&lt;div&gt;(&quot;/goodsone1/home&quot;);&lt;br&gt;return false;&lt;/div&gt;" style="rounded=1;whiteSpace=wrap;html=1;shadow=0;labelBackgroundColor=none;strokeWidth=1;fontFamily=Verdana;fontSize=8;align=center;" parent="77e6c97f196da883-3" vertex="1">
          <mxGeometry x="10" y="170" width="100" height="60" as="geometry" />
        </mxCell>
        <mxCell id="_-b6Wf-rLav5tkxfngCv-5" style="edgeStyle=orthogonalEdgeStyle;rounded=1;orthogonalLoop=1;jettySize=auto;html=1;entryX=0.5;entryY=0;entryDx=0;entryDy=0;exitX=0.5;exitY=1;exitDx=0;exitDy=0;curved=0;fontSize=8;" parent="77e6c97f196da883-3" source="_-b6Wf-rLav5tkxfngCv-1" target="77e6c97f196da883-12" edge="1">
          <mxGeometry relative="1" as="geometry">
            <Array as="points">
              <mxPoint x="115" y="150" />
              <mxPoint x="60" y="150" />
            </Array>
          </mxGeometry>
        </mxCell>
        <mxCell id="_-b6Wf-rLav5tkxfngCv-6" value="true" style="edgeLabel;html=1;align=center;verticalAlign=middle;resizable=0;points=[];fontSize=8;" parent="_-b6Wf-rLav5tkxfngCv-5" vertex="1" connectable="0">
          <mxGeometry x="0.336" y="-3" relative="1" as="geometry">
            <mxPoint x="13" y="3" as="offset" />
          </mxGeometry>
        </mxCell>
        <mxCell id="77e6c97f196da883-4" value="WebMainController" style="swimlane;html=1;startSize=20;fontSize=14;" parent="77e6c97f196da883-1" vertex="1">
          <mxGeometry x="390" y="20" width="160" height="730" as="geometry" />
        </mxCell>
        <mxCell id="_-b6Wf-rLav5tkxfngCv-8" value="showLogin()" style="rounded=1;whiteSpace=wrap;html=1;shadow=0;labelBackgroundColor=none;strokeWidth=1;fontFamily=Verdana;fontSize=8;align=center;" parent="77e6c97f196da883-4" vertex="1">
          <mxGeometry x="20" y="220" width="85" height="60" as="geometry" />
        </mxCell>
        <mxCell id="_-b6Wf-rLav5tkxfngCv-13" value="showHome()" style="rounded=1;whiteSpace=wrap;html=1;shadow=0;labelBackgroundColor=none;strokeWidth=1;fontFamily=Verdana;fontSize=8;align=center;" parent="77e6c97f196da883-4" vertex="1">
          <mxGeometry x="20" y="290" width="85" height="60" as="geometry" />
        </mxCell>
        <mxCell id="_-b6Wf-rLav5tkxfngCv-11" style="edgeStyle=orthogonalEdgeStyle;rounded=1;orthogonalLoop=1;jettySize=auto;html=1;entryX=0;entryY=0.5;entryDx=0;entryDy=0;exitX=0.5;exitY=1;exitDx=0;exitDy=0;curved=0;" parent="77e6c97f196da883-1" source="77e6c97f196da883-9" target="_-b6Wf-rLav5tkxfngCv-8" edge="1">
          <mxGeometry relative="1" as="geometry" />
        </mxCell>
        <mxCell id="_-b6Wf-rLav5tkxfngCv-12" style="edgeStyle=orthogonalEdgeStyle;rounded=1;orthogonalLoop=1;jettySize=auto;html=1;entryX=1;entryY=0.5;entryDx=0;entryDy=0;exitX=1;exitY=0.5;exitDx=0;exitDy=0;curved=0;" parent="77e6c97f196da883-1" source="_-b6Wf-rLav5tkxfngCv-8" target="_-b6Wf-rLav5tkxfngCv-10" edge="1">
          <mxGeometry relative="1" as="geometry" />
        </mxCell>
        <mxCell id="_-b6Wf-rLav5tkxfngCv-17" style="edgeStyle=orthogonalEdgeStyle;rounded=1;orthogonalLoop=1;jettySize=auto;html=1;entryX=1;entryY=0.5;entryDx=0;entryDy=0;curved=0;exitX=0.5;exitY=1;exitDx=0;exitDy=0;" parent="77e6c97f196da883-1" source="_-b6Wf-rLav5tkxfngCv-13" target="_-b6Wf-rLav5tkxfngCv-16" edge="1">
          <mxGeometry relative="1" as="geometry">
            <Array as="points">
              <mxPoint x="453" y="385" />
            </Array>
          </mxGeometry>
        </mxCell>
        <mxCell id="_-b6Wf-rLav5tkxfngCv-14" style="edgeStyle=orthogonalEdgeStyle;rounded=1;orthogonalLoop=1;jettySize=auto;html=1;entryX=0;entryY=0.5;entryDx=0;entryDy=0;exitX=0.5;exitY=1;exitDx=0;exitDy=0;curved=0;" parent="77e6c97f196da883-1" source="77e6c97f196da883-12" target="_-b6Wf-rLav5tkxfngCv-13" edge="1">
          <mxGeometry relative="1" as="geometry" />
        </mxCell>
        <mxCell id="_-b6Wf-rLav5tkxfngCv-48" style="edgeStyle=orthogonalEdgeStyle;rounded=1;orthogonalLoop=1;jettySize=auto;html=1;entryX=0;entryY=0.5;entryDx=0;entryDy=0;curved=0;exitX=1;exitY=0.5;exitDx=0;exitDy=0;" parent="77e6c97f196da883-1" source="_-b6Wf-rLav5tkxfngCv-18" target="_-b6Wf-rLav5tkxfngCv-46" edge="1">
          <mxGeometry relative="1" as="geometry">
            <Array as="points">
              <mxPoint x="540" y="500" />
              <mxPoint x="540" y="75" />
            </Array>
          </mxGeometry>
        </mxCell>
        <mxCell id="_-b6Wf-rLav5tkxfngCv-63" style="edgeStyle=orthogonalEdgeStyle;rounded=1;orthogonalLoop=1;jettySize=auto;html=1;entryX=0;entryY=0.25;entryDx=0;entryDy=0;curved=0;exitX=1;exitY=0.25;exitDx=0;exitDy=0;" parent="77e6c97f196da883-1" source="_-b6Wf-rLav5tkxfngCv-61" target="_-b6Wf-rLav5tkxfngCv-50" edge="1">
          <mxGeometry relative="1" as="geometry" />
        </mxCell>
        <mxCell id="_-b6Wf-rLav5tkxfngCv-65" value="&lt;font style=&quot;font-size: 8px;&quot;&gt;email&lt;/font&gt;" style="edgeLabel;html=1;align=center;verticalAlign=middle;resizable=0;points=[];" parent="_-b6Wf-rLav5tkxfngCv-63" vertex="1" connectable="0">
          <mxGeometry x="0.0149" y="2" relative="1" as="geometry">
            <mxPoint as="offset" />
          </mxGeometry>
        </mxCell>
        <mxCell id="_-b6Wf-rLav5tkxfngCv-71" value="&lt;span style=&quot;font-size: 8px;&quot;&gt;email&lt;/span&gt;" style="edgeStyle=orthogonalEdgeStyle;rounded=1;orthogonalLoop=1;jettySize=auto;html=1;exitX=1;exitY=0.5;exitDx=0;exitDy=0;entryX=0;entryY=0.25;entryDx=0;entryDy=0;curved=0;" parent="77e6c97f196da883-1" source="_-b6Wf-rLav5tkxfngCv-46" target="_-b6Wf-rLav5tkxfngCv-61" edge="1">
          <mxGeometry x="0.1197" relative="1" as="geometry">
            <Array as="points">
              <mxPoint x="740" y="75" />
              <mxPoint x="740" y="108" />
            </Array>
            <mxPoint as="offset" />
          </mxGeometry>
        </mxCell>
        <mxCell id="_-b6Wf-rLav5tkxfngCv-97" value="" style="edgeLabel;html=1;align=center;verticalAlign=middle;resizable=0;points=[];rounded=1;shadow=0;strokeColor=default;strokeWidth=1;fontFamily=Helvetica;fontSize=8;fontColor=default;labelBackgroundColor=default;fillColor=default;" parent="_-b6Wf-rLav5tkxfngCv-71" vertex="1" connectable="0">
          <mxGeometry x="0.6393" y="3" relative="1" as="geometry">
            <mxPoint x="-6" y="-19" as="offset" />
          </mxGeometry>
        </mxCell>
        <mxCell id="_-b6Wf-rLav5tkxfngCv-54" value="&lt;span style=&quot;font-family: Verdana; font-size: 8px; text-wrap: wrap; background-color: rgb(251, 251, 251);&quot;&gt;statement.executeQuery()&lt;/span&gt;" style="edgeStyle=orthogonalEdgeStyle;rounded=1;orthogonalLoop=1;jettySize=auto;html=1;entryX=0;entryY=0.15;entryDx=0;entryDy=0;exitX=1;exitY=0.25;exitDx=0;exitDy=0;entryPerimeter=0;curved=0;" parent="77e6c97f196da883-1" source="_-b6Wf-rLav5tkxfngCv-50" target="_-b6Wf-rLav5tkxfngCv-73" edge="1">
          <mxGeometry x="0.1366" relative="1" as="geometry">
            <Array as="points">
              <mxPoint x="1080" y="167" />
              <mxPoint x="1080" y="211" />
            </Array>
            <mxPoint as="offset" />
          </mxGeometry>
        </mxCell>
        <mxCell id="77e6c97f196da883-5" value="LoginController" style="swimlane;html=1;startSize=20;fontSize=14;" parent="77e6c97f196da883-1" vertex="1">
          <mxGeometry x="550" y="20" width="170" height="730" as="geometry" />
        </mxCell>
        <mxCell id="_-b6Wf-rLav5tkxfngCv-46" value="login(@RequestParam String email, @RequestParam String password, ... )" style="rounded=1;whiteSpace=wrap;html=1;shadow=0;labelBackgroundColor=none;strokeWidth=1;fontFamily=Verdana;fontSize=8;align=center;" parent="77e6c97f196da883-5" vertex="1">
          <mxGeometry x="22.5" y="30" width="125" height="50" as="geometry" />
        </mxCell>
        <mxCell id="_-b6Wf-rLav5tkxfngCv-114" value="catch UserNotFoundException" style="rounded=1;whiteSpace=wrap;html=1;shadow=0;labelBackgroundColor=none;strokeWidth=1;fontFamily=Verdana;fontSize=8;align=center;strokeColor=#FF0000;" parent="77e6c97f196da883-5" vertex="1">
          <mxGeometry x="22.5" y="570" width="125" height="30" as="geometry" />
        </mxCell>
        <mxCell id="_-b6Wf-rLav5tkxfngCv-115" value="catch SQLExceptioln" style="rounded=1;whiteSpace=wrap;html=1;shadow=0;labelBackgroundColor=none;strokeWidth=1;fontFamily=Verdana;fontSize=8;align=center;strokeColor=#FF0000;" parent="77e6c97f196da883-5" vertex="1">
          <mxGeometry x="22.49" y="645" width="125" height="30" as="geometry" />
        </mxCell>
        <mxCell id="_-b6Wf-rLav5tkxfngCv-121" style="edgeStyle=orthogonalEdgeStyle;shape=connector;curved=0;rounded=1;orthogonalLoop=1;jettySize=auto;html=1;entryX=0.5;entryY=0;entryDx=0;entryDy=0;shadow=0;strokeColor=default;align=center;verticalAlign=middle;fontFamily=Helvetica;fontSize=8;fontColor=default;labelBackgroundColor=default;resizable=0;endArrow=classic;flowAnimation=0;" parent="77e6c97f196da883-5" source="_-b6Wf-rLav5tkxfngCv-117" target="_-b6Wf-rLav5tkxfngCv-120" edge="1">
          <mxGeometry relative="1" as="geometry" />
        </mxCell>
        <mxCell id="_-b6Wf-rLav5tkxfngCv-117" value="User" style="rounded=1;whiteSpace=wrap;html=1;shadow=0;labelBackgroundColor=none;strokeWidth=1;fontFamily=Verdana;fontSize=8;align=center;" parent="77e6c97f196da883-5" vertex="1">
          <mxGeometry x="56.66" y="220" width="56.67" height="30" as="geometry" />
        </mxCell>
        <mxCell id="_-b6Wf-rLav5tkxfngCv-126" value="True" style="edgeStyle=orthogonalEdgeStyle;shape=connector;curved=0;rounded=1;orthogonalLoop=1;jettySize=auto;html=1;entryX=0.5;entryY=0;entryDx=0;entryDy=0;shadow=0;strokeColor=default;align=center;verticalAlign=middle;fontFamily=Helvetica;fontSize=8;fontColor=default;labelBackgroundColor=default;resizable=0;endArrow=classic;flowAnimation=0;" parent="77e6c97f196da883-5" source="_-b6Wf-rLav5tkxfngCv-120" target="_-b6Wf-rLav5tkxfngCv-125" edge="1">
          <mxGeometry relative="1" as="geometry" />
        </mxCell>
        <mxCell id="_-b6Wf-rLav5tkxfngCv-120" value="equals" style="rhombus;whiteSpace=wrap;html=1;rounded=0;shadow=0;labelBackgroundColor=none;strokeWidth=1;fontFamily=Verdana;fontSize=8;align=center;" parent="77e6c97f196da883-5" vertex="1">
          <mxGeometry x="50.31" y="280" width="69.38" height="30" as="geometry" />
        </mxCell>
        <mxCell id="_-b6Wf-rLav5tkxfngCv-125" value="session.setAttribute&lt;div&gt;&lt;span style=&quot;background-color: initial;&quot;&gt;(&quot;user&quot;, user);&lt;/span&gt;&lt;/div&gt;" style="rounded=1;whiteSpace=wrap;html=1;shadow=0;labelBackgroundColor=none;strokeWidth=1;fontFamily=Verdana;fontSize=8;align=center;" parent="77e6c97f196da883-5" vertex="1">
          <mxGeometry x="13.119999999999997" y="350" width="143.76" height="50" as="geometry" />
        </mxCell>
        <mxCell id="77e6c97f196da883-6" value="UserService" style="swimlane;html=1;startSize=20;fontSize=14;" parent="77e6c97f196da883-1" vertex="1">
          <mxGeometry x="720" y="20" width="160" height="730" as="geometry" />
        </mxCell>
        <mxCell id="_-b6Wf-rLav5tkxfngCv-61" value="&lt;div&gt;getUserByEmail&lt;/div&gt;" style="rounded=1;whiteSpace=wrap;html=1;shadow=0;labelBackgroundColor=none;strokeWidth=1;fontFamily=Verdana;fontSize=8;align=center;" parent="77e6c97f196da883-6" vertex="1">
          <mxGeometry x="33.75" y="80" width="82.5" height="30" as="geometry" />
        </mxCell>
        <mxCell id="_-b6Wf-rLav5tkxfngCv-85" value="orElseThrow" style="rhombus;whiteSpace=wrap;html=1;rounded=0;shadow=0;labelBackgroundColor=none;strokeWidth=1;fontFamily=Verdana;fontSize=8;align=center;" parent="77e6c97f196da883-6" vertex="1">
          <mxGeometry x="28.75" y="140" width="92.5" height="40" as="geometry" />
        </mxCell>
        <mxCell id="77e6c97f196da883-7" value="UserDao" style="swimlane;html=1;startSize=20;fontSize=14;" parent="77e6c97f196da883-1" vertex="1">
          <mxGeometry x="880" y="20" width="160" height="730" as="geometry" />
        </mxCell>
        <mxCell id="_-b6Wf-rLav5tkxfngCv-50" value="SELECT * FROM user WHERE user_email = ?" style="rounded=1;whiteSpace=wrap;html=1;shadow=0;labelBackgroundColor=none;strokeWidth=1;fontFamily=Verdana;fontSize=8;align=center;" parent="77e6c97f196da883-7" vertex="1">
          <mxGeometry x="17.5" y="135" width="125" height="50" as="geometry" />
        </mxCell>
        <mxCell id="_-b6Wf-rLav5tkxfngCv-93" value="&lt;font style=&quot;font-size: 8px;&quot;&gt;True&lt;/font&gt;" style="edgeStyle=orthogonalEdgeStyle;shape=connector;curved=0;rounded=1;orthogonalLoop=1;jettySize=auto;html=1;shadow=0;strokeColor=default;align=center;verticalAlign=middle;fontFamily=Helvetica;fontSize=8;fontColor=default;labelBackgroundColor=default;resizable=0;endArrow=classic;flowAnimation=0;entryX=0.5;entryY=0;entryDx=0;entryDy=0;" parent="77e6c97f196da883-7" source="_-b6Wf-rLav5tkxfngCv-87" target="_-b6Wf-rLav5tkxfngCv-92" edge="1">
          <mxGeometry relative="1" as="geometry">
            <Array as="points">
              <mxPoint x="80" y="260" />
              <mxPoint x="37" y="260" />
            </Array>
          </mxGeometry>
        </mxCell>
        <mxCell id="_-b6Wf-rLav5tkxfngCv-98" style="edgeStyle=orthogonalEdgeStyle;shape=connector;curved=0;rounded=1;orthogonalLoop=1;jettySize=auto;html=1;entryX=0.5;entryY=0;entryDx=0;entryDy=0;shadow=0;strokeColor=default;align=center;verticalAlign=middle;fontFamily=Helvetica;fontSize=8;fontColor=default;labelBackgroundColor=default;resizable=0;endArrow=classic;flowAnimation=0;" parent="77e6c97f196da883-7" source="_-b6Wf-rLav5tkxfngCv-87" target="_-b6Wf-rLav5tkxfngCv-96" edge="1">
          <mxGeometry relative="1" as="geometry">
            <Array as="points">
              <mxPoint x="80" y="260" />
              <mxPoint x="115" y="260" />
            </Array>
          </mxGeometry>
        </mxCell>
        <mxCell id="_-b6Wf-rLav5tkxfngCv-99" value="False" style="edgeLabel;html=1;align=center;verticalAlign=middle;resizable=0;points=[];rounded=1;shadow=0;strokeColor=default;strokeWidth=1;fontFamily=Helvetica;fontSize=8;fontColor=default;labelBackgroundColor=default;fillColor=default;" parent="_-b6Wf-rLav5tkxfngCv-98" vertex="1" connectable="0">
          <mxGeometry x="0.3683" relative="1" as="geometry">
            <mxPoint x="-11" as="offset" />
          </mxGeometry>
        </mxCell>
        <mxCell id="_-b6Wf-rLav5tkxfngCv-87" value="&lt;font face=&quot;Helvetica&quot;&gt;&lt;span style=&quot;text-wrap: nowrap;&quot;&gt;if (resultSet.next())&lt;/span&gt;&lt;/font&gt;" style="rhombus;whiteSpace=wrap;html=1;rounded=0;shadow=0;labelBackgroundColor=none;strokeWidth=1;fontFamily=Verdana;fontSize=8;align=center;" parent="77e6c97f196da883-7" vertex="1">
          <mxGeometry x="34.379999999999995" y="210" width="91.25" height="40" as="geometry" />
        </mxCell>
        <mxCell id="_-b6Wf-rLav5tkxfngCv-92" value="new User.Builder" style="whiteSpace=wrap;html=1;fontSize=8;fontFamily=Verdana;rounded=1;shadow=0;labelBackgroundColor=none;strokeWidth=1;" parent="77e6c97f196da883-7" vertex="1">
          <mxGeometry x="10" y="270" width="55" height="40" as="geometry" />
        </mxCell>
        <mxCell id="_-b6Wf-rLav5tkxfngCv-96" value="Optional.empty()" style="whiteSpace=wrap;html=1;fontSize=8;fontFamily=Verdana;rounded=1;shadow=0;labelBackgroundColor=none;strokeWidth=1;" parent="77e6c97f196da883-7" vertex="1">
          <mxGeometry x="80" y="270" width="70" height="40" as="geometry" />
        </mxCell>
        <mxCell id="_-b6Wf-rLav5tkxfngCv-108" value="" style="group" parent="77e6c97f196da883-7" vertex="1" connectable="0">
          <mxGeometry x="-39" y="324" width="113" height="26" as="geometry" />
        </mxCell>
        <mxCell id="_-b6Wf-rLav5tkxfngCv-105" value="Optional&amp;lt;User&amp;gt;" style="endArrow=none;html=1;rounded=1;shadow=0;strokeColor=default;align=center;verticalAlign=middle;fontFamily=Helvetica;fontSize=8;fontColor=default;labelBackgroundColor=default;resizable=0;edgeStyle=orthogonalEdgeStyle;flowAnimation=0;curved=0;entryX=0.5;entryY=1;entryDx=0;entryDy=0;exitX=0.5;exitY=1;exitDx=0;exitDy=0;" parent="_-b6Wf-rLav5tkxfngCv-108" source="_-b6Wf-rLav5tkxfngCv-92" target="_-b6Wf-rLav5tkxfngCv-96" edge="1">
          <mxGeometry width="50" height="50" relative="1" as="geometry">
            <mxPoint x="9" y="-24" as="sourcePoint" />
            <mxPoint x="59" y="-74" as="targetPoint" />
          </mxGeometry>
        </mxCell>
        <mxCell id="_-b6Wf-rLav5tkxfngCv-107" value="&lt;div&gt;&lt;br&gt;&lt;/div&gt;" style="edgeStyle=orthogonalEdgeStyle;shape=connector;curved=0;rounded=1;orthogonalLoop=1;jettySize=auto;html=1;shadow=0;strokeColor=default;align=center;verticalAlign=middle;fontFamily=Helvetica;fontSize=8;fontColor=default;labelBackgroundColor=default;resizable=0;endArrow=classic;flowAnimation=0;entryX=1;entryY=0.5;entryDx=0;entryDy=0;" parent="_-b6Wf-rLav5tkxfngCv-108" target="_-b6Wf-rLav5tkxfngCv-85" edge="1">
          <mxGeometry relative="1" as="geometry">
            <mxPoint x="113" as="sourcePoint" />
            <mxPoint x="77" y="36" as="targetPoint" />
            <Array as="points">
              <mxPoint x="113" y="6" />
              <mxPoint x="29" y="6" />
              <mxPoint x="29" y="-164" />
            </Array>
          </mxGeometry>
        </mxCell>
        <mxCell id="_-b6Wf-rLav5tkxfngCv-47" value="DB" style="swimlane;html=1;startSize=20;fontSize=14;" parent="77e6c97f196da883-1" vertex="1">
          <mxGeometry x="1040" y="20" width="172.5" height="730" as="geometry" />
        </mxCell>
        <mxCell id="_-b6Wf-rLav5tkxfngCv-73" value="&lt;span style=&quot;font-family: Verdana; font-size: 8px;&quot;&gt;Table user&lt;/span&gt;" style="strokeWidth=2;html=1;shape=mxgraph.flowchart.database;whiteSpace=wrap;" parent="_-b6Wf-rLav5tkxfngCv-47" vertex="1">
          <mxGeometry x="62.5" y="185" width="47.5" height="38" as="geometry" />
        </mxCell>
        <mxCell id="_-b6Wf-rLav5tkxfngCv-88" style="edgeStyle=orthogonalEdgeStyle;rounded=1;orthogonalLoop=1;jettySize=auto;html=1;entryX=1;entryY=0.5;entryDx=0;entryDy=0;shadow=0;flowAnimation=0;curved=0;exitX=0;exitY=0.85;exitDx=0;exitDy=0;exitPerimeter=0;" parent="77e6c97f196da883-1" source="_-b6Wf-rLav5tkxfngCv-73" target="_-b6Wf-rLav5tkxfngCv-87" edge="1">
          <mxGeometry relative="1" as="geometry" />
        </mxCell>
        <mxCell id="_-b6Wf-rLav5tkxfngCv-91" value="&lt;font style=&quot;font-size: 8px;&quot;&gt;ResultSet&lt;/font&gt;" style="edgeLabel;html=1;align=center;verticalAlign=middle;resizable=0;points=[];fontFamily=Helvetica;fontSize=11;fontColor=default;labelBackgroundColor=default;" parent="_-b6Wf-rLav5tkxfngCv-88" vertex="1" connectable="0">
          <mxGeometry x="-0.5006" y="2" relative="1" as="geometry">
            <mxPoint x="-15" y="1" as="offset" />
          </mxGeometry>
        </mxCell>
        <mxCell id="_-b6Wf-rLav5tkxfngCv-111" style="edgeStyle=orthogonalEdgeStyle;shape=connector;curved=0;rounded=1;orthogonalLoop=1;jettySize=auto;html=1;entryX=1;entryY=0.5;entryDx=0;entryDy=0;shadow=0;strokeColor=#FF0000;align=center;verticalAlign=middle;fontFamily=Helvetica;fontSize=8;fontColor=default;labelBackgroundColor=default;resizable=0;endArrow=classic;flowAnimation=0;exitX=0.5;exitY=1;exitDx=0;exitDy=0;" parent="77e6c97f196da883-1" source="_-b6Wf-rLav5tkxfngCv-85" target="_-b6Wf-rLav5tkxfngCv-114" edge="1">
          <mxGeometry relative="1" as="geometry">
            <mxPoint x="804.4499999999999" y="210" as="sourcePoint" />
            <mxPoint x="864.6000000000001" y="311.0000000000001" as="targetPoint" />
          </mxGeometry>
        </mxCell>
        <mxCell id="_-b6Wf-rLav5tkxfngCv-112" value="False" style="edgeLabel;html=1;align=center;verticalAlign=middle;resizable=0;points=[];rounded=1;shadow=0;strokeColor=default;strokeWidth=1;fontFamily=Helvetica;fontSize=8;fontColor=default;labelBackgroundColor=default;fillColor=default;" parent="_-b6Wf-rLav5tkxfngCv-111" vertex="1" connectable="0">
          <mxGeometry x="0.3683" relative="1" as="geometry">
            <mxPoint y="-295" as="offset" />
          </mxGeometry>
        </mxCell>
        <mxCell id="_-b6Wf-rLav5tkxfngCv-116" style="edgeStyle=orthogonalEdgeStyle;shape=connector;curved=0;rounded=1;orthogonalLoop=1;jettySize=auto;html=1;entryX=1;entryY=0.5;entryDx=0;entryDy=0;shadow=0;strokeColor=#FF0000;align=center;verticalAlign=middle;fontFamily=Helvetica;fontSize=8;fontColor=default;labelBackgroundColor=default;resizable=0;endArrow=classic;flowAnimation=0;" parent="77e6c97f196da883-1" source="_-b6Wf-rLav5tkxfngCv-73" target="_-b6Wf-rLav5tkxfngCv-115" edge="1">
          <mxGeometry relative="1" as="geometry">
            <Array as="points">
              <mxPoint x="1126" y="680" />
            </Array>
          </mxGeometry>
        </mxCell>
        <mxCell id="_-b6Wf-rLav5tkxfngCv-110" value="&lt;font style=&quot;font-size: 8px;&quot;&gt;True&lt;/font&gt;" style="edgeStyle=orthogonalEdgeStyle;shape=connector;curved=0;rounded=1;orthogonalLoop=1;jettySize=auto;html=1;shadow=0;strokeColor=default;align=center;verticalAlign=middle;fontFamily=Helvetica;fontSize=8;fontColor=default;labelBackgroundColor=default;resizable=0;endArrow=classic;flowAnimation=0;exitX=0.5;exitY=1;exitDx=0;exitDy=0;" parent="77e6c97f196da883-1" source="_-b6Wf-rLav5tkxfngCv-85" target="_-b6Wf-rLav5tkxfngCv-117" edge="1">
          <mxGeometry x="-0.5304" relative="1" as="geometry">
            <mxPoint x="791.75" y="210" as="sourcePoint" />
            <mxPoint x="749.75" y="230" as="targetPoint" />
            <Array as="points">
              <mxPoint x="795" y="220" />
              <mxPoint x="750" y="220" />
              <mxPoint x="750" y="260" />
            </Array>
            <mxPoint as="offset" />
          </mxGeometry>
        </mxCell>
        <mxCell id="_-b6Wf-rLav5tkxfngCv-118" value="" style="edgeLabel;html=1;align=center;verticalAlign=middle;resizable=0;points=[];rounded=1;shadow=0;strokeColor=default;strokeWidth=1;fontFamily=Helvetica;fontSize=8;fontColor=default;labelBackgroundColor=default;fillColor=default;" parent="_-b6Wf-rLav5tkxfngCv-110" vertex="1" connectable="0">
          <mxGeometry x="0.7356" relative="1" as="geometry">
            <mxPoint as="offset" />
          </mxGeometry>
        </mxCell>
        <mxCell id="_-b6Wf-rLav5tkxfngCv-127" value="return ResponseEntity.ok(&quot;Login successful&quot;);" style="edgeStyle=orthogonalEdgeStyle;shape=connector;curved=0;rounded=1;orthogonalLoop=1;jettySize=auto;html=1;entryX=1;entryY=0.75;entryDx=0;entryDy=0;shadow=0;strokeColor=default;align=center;verticalAlign=middle;fontFamily=Helvetica;fontSize=8;fontColor=default;labelBackgroundColor=default;resizable=0;endArrow=classic;flowAnimation=0;" parent="77e6c97f196da883-1" source="_-b6Wf-rLav5tkxfngCv-125" target="_-b6Wf-rLav5tkxfngCv-18" edge="1">
          <mxGeometry x="-0.8974" relative="1" as="geometry">
            <Array as="points">
              <mxPoint x="635" y="515" />
            </Array>
            <mxPoint as="offset" />
          </mxGeometry>
        </mxCell>
        <mxCell id="_-b6Wf-rLav5tkxfngCv-130" value="" style="edgeStyle=orthogonalEdgeStyle;shape=connector;curved=0;rounded=1;orthogonalLoop=1;jettySize=auto;html=1;entryX=1;entryY=0.75;entryDx=0;entryDy=0;shadow=0;strokeColor=default;align=center;verticalAlign=middle;fontFamily=Helvetica;fontSize=8;fontColor=default;labelBackgroundColor=default;resizable=0;endArrow=classic;flowAnimation=0;" parent="77e6c97f196da883-1" source="_-b6Wf-rLav5tkxfngCv-120" target="_-b6Wf-rLav5tkxfngCv-18" edge="1">
          <mxGeometry x="-0.9536" y="-15" relative="1" as="geometry">
            <Array as="points">
              <mxPoint x="710" y="315" />
              <mxPoint x="710" y="550" />
              <mxPoint x="145" y="550" />
            </Array>
            <mxPoint as="offset" />
          </mxGeometry>
        </mxCell>
        <mxCell id="_-b6Wf-rLav5tkxfngCv-131" value="False" style="edgeLabel;html=1;align=center;verticalAlign=middle;resizable=0;points=[];rounded=1;shadow=0;strokeColor=default;strokeWidth=1;fontFamily=Helvetica;fontSize=8;fontColor=default;labelBackgroundColor=default;fillColor=default;" parent="_-b6Wf-rLav5tkxfngCv-130" vertex="1" connectable="0">
          <mxGeometry x="-0.9532" relative="1" as="geometry">
            <mxPoint as="offset" />
          </mxGeometry>
        </mxCell>
        <mxCell id="_-b6Wf-rLav5tkxfngCv-132" value="ResponseEntity&lt;div&gt;.status(HttpStatus.BAD_REQUEST)&lt;br&gt;&lt;/div&gt;" style="edgeLabel;html=1;align=center;verticalAlign=middle;resizable=0;points=[];rounded=1;shadow=0;strokeColor=default;strokeWidth=1;fontFamily=Helvetica;fontSize=8;fontColor=default;labelBackgroundColor=default;fillColor=default;" parent="_-b6Wf-rLav5tkxfngCv-130" vertex="1" connectable="0">
          <mxGeometry x="-0.2064" y="1" relative="1" as="geometry">
            <mxPoint as="offset" />
          </mxGeometry>
        </mxCell>
        <mxCell id="_-b6Wf-rLav5tkxfngCv-133" style="edgeStyle=orthogonalEdgeStyle;shape=connector;curved=0;rounded=1;orthogonalLoop=1;jettySize=auto;html=1;entryX=1;entryY=0.75;entryDx=0;entryDy=0;shadow=0;strokeColor=default;align=center;verticalAlign=middle;fontFamily=Helvetica;fontSize=8;fontColor=default;labelBackgroundColor=default;resizable=0;endArrow=classic;flowAnimation=0;" parent="77e6c97f196da883-1" source="_-b6Wf-rLav5tkxfngCv-114" target="_-b6Wf-rLav5tkxfngCv-18" edge="1">
          <mxGeometry relative="1" as="geometry">
            <Array as="points">
              <mxPoint x="145" y="635" />
            </Array>
          </mxGeometry>
        </mxCell>
        <mxCell id="_-b6Wf-rLav5tkxfngCv-135" value="ResponseEntity&lt;div&gt;.status(HttpStatus.BAD_REQUEST)&lt;/div&gt;" style="edgeLabel;html=1;align=center;verticalAlign=middle;resizable=0;points=[];rounded=1;shadow=0;strokeColor=default;strokeWidth=1;fontFamily=Helvetica;fontSize=8;fontColor=default;labelBackgroundColor=default;fillColor=default;" parent="_-b6Wf-rLav5tkxfngCv-133" vertex="1" connectable="0">
          <mxGeometry x="-0.8522" relative="1" as="geometry">
            <mxPoint x="31" as="offset" />
          </mxGeometry>
        </mxCell>
        <mxCell id="_-b6Wf-rLav5tkxfngCv-134" style="edgeStyle=orthogonalEdgeStyle;shape=connector;curved=0;rounded=1;orthogonalLoop=1;jettySize=auto;html=1;shadow=0;strokeColor=default;align=center;verticalAlign=middle;fontFamily=Helvetica;fontSize=8;fontColor=default;labelBackgroundColor=default;resizable=0;endArrow=classic;flowAnimation=0;entryX=1;entryY=0.75;entryDx=0;entryDy=0;exitX=0.5;exitY=1;exitDx=0;exitDy=0;" parent="77e6c97f196da883-1" source="_-b6Wf-rLav5tkxfngCv-115" target="_-b6Wf-rLav5tkxfngCv-18" edge="1">
          <mxGeometry relative="1" as="geometry">
            <mxPoint x="210" y="550" as="targetPoint" />
            <Array as="points">
              <mxPoint x="635" y="720" />
              <mxPoint x="145" y="720" />
            </Array>
          </mxGeometry>
        </mxCell>
        <mxCell id="_-b6Wf-rLav5tkxfngCv-136" value="ResponseEntity&lt;div&gt;.status(HttpStatus.UNAUTHORIZED)&lt;/div&gt;" style="edgeLabel;html=1;align=center;verticalAlign=middle;resizable=0;points=[];rounded=1;shadow=0;strokeColor=default;strokeWidth=1;fontFamily=Helvetica;fontSize=8;fontColor=default;labelBackgroundColor=default;fillColor=default;" parent="_-b6Wf-rLav5tkxfngCv-134" vertex="1" connectable="0">
          <mxGeometry x="-0.9436" y="-3" relative="1" as="geometry">
            <mxPoint as="offset" />
          </mxGeometry>
        </mxCell>
        <mxCell id="hsu4_0Md_M0oJrGJHLL6-1" value="마이페이지" style="swimlane;html=1;childLayout=stackLayout;startSize=20;rounded=0;shadow=0;labelBackgroundColor=none;strokeWidth=1;fontFamily=Verdana;fontSize=14;align=center;" parent="1" vertex="1">
          <mxGeometry x="1370" y="20" width="1222.69" height="750" as="geometry" />
        </mxCell>
        <mxCell id="hsu4_0Md_M0oJrGJHLL6-2" style="edgeStyle=orthogonalEdgeStyle;rounded=1;html=1;labelBackgroundColor=none;startArrow=none;startFill=0;startSize=5;endArrow=classicThin;endFill=1;endSize=5;jettySize=auto;orthogonalLoop=1;strokeWidth=1;fontFamily=Verdana;fontSize=8;entryX=0;entryY=0.5;entryDx=0;entryDy=0;" parent="hsu4_0Md_M0oJrGJHLL6-1" source="hsu4_0Md_M0oJrGJHLL6-4" target="hsu4_0Md_M0oJrGJHLL6-10" edge="1">
          <mxGeometry relative="1" as="geometry">
            <mxPoint x="190" y="80" as="targetPoint" />
            <Array as="points">
              <mxPoint x="170" y="80" />
            </Array>
          </mxGeometry>
        </mxCell>
        <mxCell id="hsu4_0Md_M0oJrGJHLL6-3" value="Client" style="swimlane;html=1;startSize=20;fontSize=14;" parent="hsu4_0Md_M0oJrGJHLL6-1" vertex="1">
          <mxGeometry y="20" width="170.19" height="730" as="geometry" />
        </mxCell>
        <mxCell id="hsu4_0Md_M0oJrGJHLL6-4" value="GET&lt;br style=&quot;font-size: 8px;&quot;&gt;/goodsone1/my" style="rounded=1;whiteSpace=wrap;html=1;shadow=0;labelBackgroundColor=none;strokeWidth=1;fontFamily=Verdana;fontSize=8;align=center;" parent="hsu4_0Md_M0oJrGJHLL6-3" vertex="1">
          <mxGeometry x="15" y="30" width="130" height="60" as="geometry" />
        </mxCell>
        <mxCell id="hsu4_0Md_M0oJrGJHLL6-7" value="login.jsp" style="rounded=1;whiteSpace=wrap;html=1;shadow=0;labelBackgroundColor=none;strokeWidth=1;fontFamily=Verdana;fontSize=8;align=center;" parent="hsu4_0Md_M0oJrGJHLL6-3" vertex="1">
          <mxGeometry x="47.5" y="350" width="65" height="30" as="geometry" />
        </mxCell>
        <mxCell id="hsu4_0Md_M0oJrGJHLL6-8" value="POST&lt;br&gt;/goodsond1/loginBySeq" style="rounded=1;whiteSpace=wrap;html=1;shadow=0;labelBackgroundColor=none;strokeWidth=1;fontFamily=Verdana;fontSize=8;align=center;" parent="hsu4_0Md_M0oJrGJHLL6-3" vertex="1">
          <mxGeometry x="27.5" y="540" width="105" height="60" as="geometry" />
        </mxCell>
        <mxCell id="hsu4_0Md_M0oJrGJHLL6-73" value="&lt;font style=&quot;font-size: 8px;&quot;&gt;True&lt;/font&gt;" style="edgeStyle=orthogonalEdgeStyle;rounded=0;orthogonalLoop=1;jettySize=auto;html=1;entryX=0.5;entryY=0;entryDx=0;entryDy=0;" parent="hsu4_0Md_M0oJrGJHLL6-3" source="hsu4_0Md_M0oJrGJHLL6-70" target="hsu4_0Md_M0oJrGJHLL6-6" edge="1">
          <mxGeometry x="-0.2502" relative="1" as="geometry">
            <mxPoint as="offset" />
          </mxGeometry>
        </mxCell>
        <mxCell id="hsu4_0Md_M0oJrGJHLL6-76" value="&lt;font style=&quot;font-size: 8px;&quot;&gt;False&lt;/font&gt;" style="edgeStyle=orthogonalEdgeStyle;rounded=0;orthogonalLoop=1;jettySize=auto;html=1;entryX=0;entryY=0.5;entryDx=0;entryDy=0;exitX=0;exitY=0.5;exitDx=0;exitDy=0;" parent="hsu4_0Md_M0oJrGJHLL6-3" source="hsu4_0Md_M0oJrGJHLL6-70" target="hsu4_0Md_M0oJrGJHLL6-75" edge="1">
          <mxGeometry x="-0.867" y="-1" relative="1" as="geometry">
            <Array as="points">
              <mxPoint x="10" y="421" />
              <mxPoint x="10" y="693" />
            </Array>
            <mxPoint as="offset" />
          </mxGeometry>
        </mxCell>
        <mxCell id="hsu4_0Md_M0oJrGJHLL6-70" value="${empty&lt;div&gt;sessionScope&lt;div&gt;.loginBySeq}&lt;/div&gt;&lt;/div&gt;" style="rhombus;whiteSpace=wrap;html=1;rounded=0;shadow=0;labelBackgroundColor=none;strokeWidth=1;fontFamily=Verdana;fontSize=8;align=center;" parent="hsu4_0Md_M0oJrGJHLL6-3" vertex="1">
          <mxGeometry x="29.13" y="392" width="101.73" height="58" as="geometry" />
        </mxCell>
        <mxCell id="hsu4_0Md_M0oJrGJHLL6-75" value="(회원정보)&lt;div&gt;my.jsp&lt;/div&gt;" style="rounded=1;whiteSpace=wrap;html=1;shadow=0;labelBackgroundColor=none;strokeWidth=1;fontFamily=Verdana;fontSize=8;align=center;" parent="hsu4_0Md_M0oJrGJHLL6-3" vertex="1">
          <mxGeometry x="47.5" y="678" width="65" height="30" as="geometry" />
        </mxCell>
        <mxCell id="hsu4_0Md_M0oJrGJHLL6-80" style="edgeStyle=orthogonalEdgeStyle;rounded=0;orthogonalLoop=1;jettySize=auto;html=1;entryX=0.5;entryY=0;entryDx=0;entryDy=0;" parent="hsu4_0Md_M0oJrGJHLL6-3" source="hsu4_0Md_M0oJrGJHLL6-6" target="hsu4_0Md_M0oJrGJHLL6-8" edge="1">
          <mxGeometry relative="1" as="geometry" />
        </mxCell>
        <mxCell id="hsu4_0Md_M0oJrGJHLL6-6" value="(비밀번호입력)&lt;div&gt;my.jsp&lt;/div&gt;" style="rounded=1;whiteSpace=wrap;html=1;shadow=0;labelBackgroundColor=none;strokeWidth=1;fontFamily=Verdana;fontSize=8;align=center;" parent="hsu4_0Md_M0oJrGJHLL6-3" vertex="1">
          <mxGeometry x="47.5" y="482" width="65" height="30" as="geometry" />
        </mxCell>
        <mxCell id="hsu4_0Md_M0oJrGJHLL6-9" value="AuthInterceptor" style="swimlane;html=1;startSize=20;fontSize=14;" parent="hsu4_0Md_M0oJrGJHLL6-1" vertex="1">
          <mxGeometry x="170.19" y="20" width="230" height="730" as="geometry" />
        </mxCell>
        <mxCell id="hsu4_0Md_M0oJrGJHLL6-10" value="if (session.getAttribute(&quot;userSeq&quot;) == null)&amp;nbsp;" style="rhombus;whiteSpace=wrap;html=1;rounded=0;shadow=0;labelBackgroundColor=none;strokeWidth=1;fontFamily=Verdana;fontSize=8;align=center;" parent="hsu4_0Md_M0oJrGJHLL6-9" vertex="1">
          <mxGeometry x="10" y="45" width="210" height="90" as="geometry" />
        </mxCell>
        <mxCell id="hsu4_0Md_M0oJrGJHLL6-11" value="return true;" style="rounded=1;whiteSpace=wrap;html=1;shadow=0;labelBackgroundColor=none;strokeWidth=1;fontFamily=Verdana;fontSize=8;align=center;" parent="hsu4_0Md_M0oJrGJHLL6-9" vertex="1">
          <mxGeometry x="120" y="170" width="100" height="60" as="geometry" />
        </mxCell>
        <mxCell id="hsu4_0Md_M0oJrGJHLL6-12" style="edgeStyle=orthogonalEdgeStyle;rounded=1;html=1;labelBackgroundColor=none;startArrow=none;startFill=0;startSize=5;endArrow=classicThin;endFill=1;endSize=5;jettySize=auto;orthogonalLoop=1;strokeWidth=1;fontFamily=Verdana;fontSize=8;exitX=0.5;exitY=1;exitDx=0;exitDy=0;entryX=0.5;entryY=0;entryDx=0;entryDy=0;" parent="hsu4_0Md_M0oJrGJHLL6-9" source="hsu4_0Md_M0oJrGJHLL6-10" target="hsu4_0Md_M0oJrGJHLL6-11" edge="1">
          <mxGeometry relative="1" as="geometry">
            <Array as="points">
              <mxPoint x="115" y="150" />
              <mxPoint x="170" y="150" />
            </Array>
            <mxPoint x="80" y="90" as="sourcePoint" />
          </mxGeometry>
        </mxCell>
        <mxCell id="hsu4_0Md_M0oJrGJHLL6-13" value="false" style="edgeLabel;html=1;align=center;verticalAlign=middle;resizable=0;points=[];fontSize=8;" parent="hsu4_0Md_M0oJrGJHLL6-12" vertex="1" connectable="0">
          <mxGeometry x="-0.4932" relative="1" as="geometry">
            <mxPoint x="25" as="offset" />
          </mxGeometry>
        </mxCell>
        <mxCell id="hsu4_0Md_M0oJrGJHLL6-14" value="response.&lt;div&gt;sendRedirect&lt;/div&gt;&lt;div&gt;(&quot;/goodsone1/login&quot;);&lt;br&gt;return false;&lt;/div&gt;" style="rounded=1;whiteSpace=wrap;html=1;shadow=0;labelBackgroundColor=none;strokeWidth=1;fontFamily=Verdana;fontSize=8;align=center;" parent="hsu4_0Md_M0oJrGJHLL6-9" vertex="1">
          <mxGeometry x="10" y="170" width="100" height="60" as="geometry" />
        </mxCell>
        <mxCell id="hsu4_0Md_M0oJrGJHLL6-15" style="edgeStyle=orthogonalEdgeStyle;rounded=1;orthogonalLoop=1;jettySize=auto;html=1;entryX=0.5;entryY=0;entryDx=0;entryDy=0;exitX=0.5;exitY=1;exitDx=0;exitDy=0;curved=0;fontSize=8;" parent="hsu4_0Md_M0oJrGJHLL6-9" source="hsu4_0Md_M0oJrGJHLL6-10" target="hsu4_0Md_M0oJrGJHLL6-14" edge="1">
          <mxGeometry relative="1" as="geometry">
            <Array as="points">
              <mxPoint x="115" y="150" />
              <mxPoint x="60" y="150" />
            </Array>
          </mxGeometry>
        </mxCell>
        <mxCell id="hsu4_0Md_M0oJrGJHLL6-16" value="true" style="edgeLabel;html=1;align=center;verticalAlign=middle;resizable=0;points=[];fontSize=8;" parent="hsu4_0Md_M0oJrGJHLL6-15" vertex="1" connectable="0">
          <mxGeometry x="0.336" y="-3" relative="1" as="geometry">
            <mxPoint x="13" y="3" as="offset" />
          </mxGeometry>
        </mxCell>
        <mxCell id="hsu4_0Md_M0oJrGJHLL6-17" value="WebMainController" style="swimlane;html=1;startSize=20;fontSize=14;" parent="hsu4_0Md_M0oJrGJHLL6-1" vertex="1">
          <mxGeometry x="400.19" y="20" width="160" height="730" as="geometry" />
        </mxCell>
        <mxCell id="hsu4_0Md_M0oJrGJHLL6-18" value="showMy()" style="rounded=1;whiteSpace=wrap;html=1;shadow=0;labelBackgroundColor=none;strokeWidth=1;fontFamily=Verdana;fontSize=8;align=center;" parent="hsu4_0Md_M0oJrGJHLL6-17" vertex="1">
          <mxGeometry x="20" y="220" width="85" height="60" as="geometry" />
        </mxCell>
        <mxCell id="hsu4_0Md_M0oJrGJHLL6-19" value="showLogin()" style="rounded=1;whiteSpace=wrap;html=1;shadow=0;labelBackgroundColor=none;strokeWidth=1;fontFamily=Verdana;fontSize=8;align=center;" parent="hsu4_0Md_M0oJrGJHLL6-17" vertex="1">
          <mxGeometry x="20" y="290" width="85" height="60" as="geometry" />
        </mxCell>
        <mxCell id="hsu4_0Md_M0oJrGJHLL6-20" style="edgeStyle=orthogonalEdgeStyle;rounded=1;orthogonalLoop=1;jettySize=auto;html=1;entryX=0;entryY=0.5;entryDx=0;entryDy=0;exitX=0.5;exitY=1;exitDx=0;exitDy=0;curved=0;" parent="hsu4_0Md_M0oJrGJHLL6-1" source="hsu4_0Md_M0oJrGJHLL6-11" target="hsu4_0Md_M0oJrGJHLL6-18" edge="1">
          <mxGeometry relative="1" as="geometry" />
        </mxCell>
        <mxCell id="hsu4_0Md_M0oJrGJHLL6-21" style="edgeStyle=orthogonalEdgeStyle;rounded=1;orthogonalLoop=1;jettySize=auto;html=1;entryX=0.5;entryY=0;entryDx=0;entryDy=0;exitX=1;exitY=0.5;exitDx=0;exitDy=0;curved=0;" parent="hsu4_0Md_M0oJrGJHLL6-1" source="hsu4_0Md_M0oJrGJHLL6-18" target="hsu4_0Md_M0oJrGJHLL6-70" edge="1">
          <mxGeometry relative="1" as="geometry">
            <Array as="points">
              <mxPoint x="525" y="270" />
              <mxPoint x="525" y="412" />
            </Array>
          </mxGeometry>
        </mxCell>
        <mxCell id="hsu4_0Md_M0oJrGJHLL6-22" style="edgeStyle=orthogonalEdgeStyle;rounded=1;orthogonalLoop=1;jettySize=auto;html=1;entryX=1;entryY=0.5;entryDx=0;entryDy=0;curved=0;exitX=0.5;exitY=1;exitDx=0;exitDy=0;" parent="hsu4_0Md_M0oJrGJHLL6-1" source="hsu4_0Md_M0oJrGJHLL6-19" target="hsu4_0Md_M0oJrGJHLL6-7" edge="1">
          <mxGeometry relative="1" as="geometry">
            <Array as="points">
              <mxPoint x="463" y="385" />
            </Array>
          </mxGeometry>
        </mxCell>
        <mxCell id="hsu4_0Md_M0oJrGJHLL6-23" style="edgeStyle=orthogonalEdgeStyle;rounded=1;orthogonalLoop=1;jettySize=auto;html=1;entryX=0;entryY=0.5;entryDx=0;entryDy=0;exitX=0.5;exitY=1;exitDx=0;exitDy=0;curved=0;" parent="hsu4_0Md_M0oJrGJHLL6-1" source="hsu4_0Md_M0oJrGJHLL6-14" target="hsu4_0Md_M0oJrGJHLL6-19" edge="1">
          <mxGeometry relative="1" as="geometry" />
        </mxCell>
        <mxCell id="hsu4_0Md_M0oJrGJHLL6-24" style="edgeStyle=orthogonalEdgeStyle;rounded=1;orthogonalLoop=1;jettySize=auto;html=1;entryX=0;entryY=0.5;entryDx=0;entryDy=0;curved=0;exitX=1;exitY=0.25;exitDx=0;exitDy=0;" parent="hsu4_0Md_M0oJrGJHLL6-1" source="hsu4_0Md_M0oJrGJHLL6-8" target="hsu4_0Md_M0oJrGJHLL6-31" edge="1">
          <mxGeometry relative="1" as="geometry">
            <Array as="points">
              <mxPoint x="544" y="575" />
              <mxPoint x="544" y="75" />
            </Array>
          </mxGeometry>
        </mxCell>
        <mxCell id="hsu4_0Md_M0oJrGJHLL6-25" style="edgeStyle=orthogonalEdgeStyle;rounded=1;orthogonalLoop=1;jettySize=auto;html=1;entryX=0;entryY=0.25;entryDx=0;entryDy=0;curved=0;exitX=1;exitY=0.25;exitDx=0;exitDy=0;" parent="hsu4_0Md_M0oJrGJHLL6-1" source="hsu4_0Md_M0oJrGJHLL6-40" target="hsu4_0Md_M0oJrGJHLL6-43" edge="1">
          <mxGeometry relative="1" as="geometry" />
        </mxCell>
        <mxCell id="hsu4_0Md_M0oJrGJHLL6-26" value="&lt;font style=&quot;font-size: 8px;&quot;&gt;email&lt;/font&gt;" style="edgeLabel;html=1;align=center;verticalAlign=middle;resizable=0;points=[];" parent="hsu4_0Md_M0oJrGJHLL6-25" vertex="1" connectable="0">
          <mxGeometry x="0.0149" y="2" relative="1" as="geometry">
            <mxPoint as="offset" />
          </mxGeometry>
        </mxCell>
        <mxCell id="hsu4_0Md_M0oJrGJHLL6-27" value="&lt;span style=&quot;font-size: 8px;&quot;&gt;email&lt;/span&gt;" style="edgeStyle=orthogonalEdgeStyle;rounded=1;orthogonalLoop=1;jettySize=auto;html=1;exitX=1;exitY=0.5;exitDx=0;exitDy=0;entryX=0;entryY=0.25;entryDx=0;entryDy=0;curved=0;" parent="hsu4_0Md_M0oJrGJHLL6-1" source="hsu4_0Md_M0oJrGJHLL6-31" target="hsu4_0Md_M0oJrGJHLL6-40" edge="1">
          <mxGeometry x="0.1197" relative="1" as="geometry">
            <Array as="points">
              <mxPoint x="740" y="75" />
              <mxPoint x="740" y="108" />
            </Array>
            <mxPoint as="offset" />
          </mxGeometry>
        </mxCell>
        <mxCell id="hsu4_0Md_M0oJrGJHLL6-28" value="" style="edgeLabel;html=1;align=center;verticalAlign=middle;resizable=0;points=[];rounded=1;shadow=0;strokeColor=default;strokeWidth=1;fontFamily=Helvetica;fontSize=8;fontColor=default;labelBackgroundColor=default;fillColor=default;" parent="hsu4_0Md_M0oJrGJHLL6-27" vertex="1" connectable="0">
          <mxGeometry x="0.6393" y="3" relative="1" as="geometry">
            <mxPoint x="-6" y="-19" as="offset" />
          </mxGeometry>
        </mxCell>
        <mxCell id="hsu4_0Md_M0oJrGJHLL6-29" value="&lt;span style=&quot;font-family: Verdana; font-size: 8px; text-wrap: wrap; background-color: rgb(251, 251, 251);&quot;&gt;statement.executeQuery()&lt;/span&gt;" style="edgeStyle=orthogonalEdgeStyle;rounded=1;orthogonalLoop=1;jettySize=auto;html=1;entryX=0;entryY=0.15;entryDx=0;entryDy=0;exitX=1;exitY=0.25;exitDx=0;exitDy=0;entryPerimeter=0;curved=0;" parent="hsu4_0Md_M0oJrGJHLL6-1" source="hsu4_0Md_M0oJrGJHLL6-43" target="hsu4_0Md_M0oJrGJHLL6-54" edge="1">
          <mxGeometry x="0.1366" relative="1" as="geometry">
            <Array as="points">
              <mxPoint x="1080" y="167" />
              <mxPoint x="1080" y="211" />
            </Array>
            <mxPoint as="offset" />
          </mxGeometry>
        </mxCell>
        <mxCell id="hsu4_0Md_M0oJrGJHLL6-30" value="LoginController" style="swimlane;html=1;startSize=20;fontSize=14;" parent="hsu4_0Md_M0oJrGJHLL6-1" vertex="1">
          <mxGeometry x="560.19" y="20" width="170" height="730" as="geometry" />
        </mxCell>
        <mxCell id="hsu4_0Md_M0oJrGJHLL6-31" value="login(@RequestParam String email, @RequestParam String password, ... )" style="rounded=1;whiteSpace=wrap;html=1;shadow=0;labelBackgroundColor=none;strokeWidth=1;fontFamily=Verdana;fontSize=8;align=center;" parent="hsu4_0Md_M0oJrGJHLL6-30" vertex="1">
          <mxGeometry x="22.5" y="30" width="125" height="50" as="geometry" />
        </mxCell>
        <mxCell id="hsu4_0Md_M0oJrGJHLL6-32" value="catch UserNotFoundException" style="rounded=1;whiteSpace=wrap;html=1;shadow=0;labelBackgroundColor=none;strokeWidth=1;fontFamily=Verdana;fontSize=8;align=center;strokeColor=#FF0000;" parent="hsu4_0Md_M0oJrGJHLL6-30" vertex="1">
          <mxGeometry x="22.5" y="570" width="125" height="30" as="geometry" />
        </mxCell>
        <mxCell id="hsu4_0Md_M0oJrGJHLL6-33" value="catch SQLExceptioln" style="rounded=1;whiteSpace=wrap;html=1;shadow=0;labelBackgroundColor=none;strokeWidth=1;fontFamily=Verdana;fontSize=8;align=center;strokeColor=#FF0000;" parent="hsu4_0Md_M0oJrGJHLL6-30" vertex="1">
          <mxGeometry x="22.49" y="645" width="125" height="30" as="geometry" />
        </mxCell>
        <mxCell id="hsu4_0Md_M0oJrGJHLL6-34" style="edgeStyle=orthogonalEdgeStyle;shape=connector;curved=0;rounded=1;orthogonalLoop=1;jettySize=auto;html=1;entryX=0.5;entryY=0;entryDx=0;entryDy=0;shadow=0;strokeColor=default;align=center;verticalAlign=middle;fontFamily=Helvetica;fontSize=8;fontColor=default;labelBackgroundColor=default;resizable=0;endArrow=classic;flowAnimation=0;" parent="hsu4_0Md_M0oJrGJHLL6-30" source="hsu4_0Md_M0oJrGJHLL6-35" target="hsu4_0Md_M0oJrGJHLL6-37" edge="1">
          <mxGeometry relative="1" as="geometry" />
        </mxCell>
        <mxCell id="hsu4_0Md_M0oJrGJHLL6-35" value="User" style="rounded=1;whiteSpace=wrap;html=1;shadow=0;labelBackgroundColor=none;strokeWidth=1;fontFamily=Verdana;fontSize=8;align=center;" parent="hsu4_0Md_M0oJrGJHLL6-30" vertex="1">
          <mxGeometry x="56.66" y="220" width="56.67" height="30" as="geometry" />
        </mxCell>
        <mxCell id="hsu4_0Md_M0oJrGJHLL6-36" value="True" style="edgeStyle=orthogonalEdgeStyle;shape=connector;curved=0;rounded=1;orthogonalLoop=1;jettySize=auto;html=1;entryX=0.5;entryY=0;entryDx=0;entryDy=0;shadow=0;strokeColor=default;align=center;verticalAlign=middle;fontFamily=Helvetica;fontSize=8;fontColor=default;labelBackgroundColor=default;resizable=0;endArrow=classic;flowAnimation=0;" parent="hsu4_0Md_M0oJrGJHLL6-30" source="hsu4_0Md_M0oJrGJHLL6-37" target="hsu4_0Md_M0oJrGJHLL6-38" edge="1">
          <mxGeometry relative="1" as="geometry" />
        </mxCell>
        <mxCell id="hsu4_0Md_M0oJrGJHLL6-37" value="equals" style="rhombus;whiteSpace=wrap;html=1;rounded=0;shadow=0;labelBackgroundColor=none;strokeWidth=1;fontFamily=Verdana;fontSize=8;align=center;" parent="hsu4_0Md_M0oJrGJHLL6-30" vertex="1">
          <mxGeometry x="50.31" y="280" width="69.38" height="30" as="geometry" />
        </mxCell>
        <mxCell id="hsu4_0Md_M0oJrGJHLL6-38" value="session.setAttribute&lt;div&gt;&lt;span style=&quot;background-color: initial;&quot;&gt;(&quot;userSeq&quot;, Long.valueOf(user.getUserSeq()));&lt;/span&gt;&lt;/div&gt;" style="rounded=1;whiteSpace=wrap;html=1;shadow=0;labelBackgroundColor=none;strokeWidth=1;fontFamily=Verdana;fontSize=8;align=center;" parent="hsu4_0Md_M0oJrGJHLL6-30" vertex="1">
          <mxGeometry x="13.119999999999997" y="350" width="143.76" height="50" as="geometry" />
        </mxCell>
        <mxCell id="hsu4_0Md_M0oJrGJHLL6-39" value="UserService" style="swimlane;html=1;startSize=20;fontSize=14;" parent="hsu4_0Md_M0oJrGJHLL6-1" vertex="1">
          <mxGeometry x="730.19" y="20" width="160" height="730" as="geometry" />
        </mxCell>
        <mxCell id="hsu4_0Md_M0oJrGJHLL6-40" value="&lt;div&gt;getUserByEmail&lt;/div&gt;" style="rounded=1;whiteSpace=wrap;html=1;shadow=0;labelBackgroundColor=none;strokeWidth=1;fontFamily=Verdana;fontSize=8;align=center;" parent="hsu4_0Md_M0oJrGJHLL6-39" vertex="1">
          <mxGeometry x="33.75" y="80" width="82.5" height="30" as="geometry" />
        </mxCell>
        <mxCell id="hsu4_0Md_M0oJrGJHLL6-41" value="orElseThrow" style="rhombus;whiteSpace=wrap;html=1;rounded=0;shadow=0;labelBackgroundColor=none;strokeWidth=1;fontFamily=Verdana;fontSize=8;align=center;" parent="hsu4_0Md_M0oJrGJHLL6-39" vertex="1">
          <mxGeometry x="28.75" y="140" width="92.5" height="40" as="geometry" />
        </mxCell>
        <mxCell id="hsu4_0Md_M0oJrGJHLL6-42" value="UserDao" style="swimlane;html=1;startSize=20;fontSize=14;" parent="hsu4_0Md_M0oJrGJHLL6-1" vertex="1">
          <mxGeometry x="890.19" y="20" width="160" height="730" as="geometry" />
        </mxCell>
        <mxCell id="hsu4_0Md_M0oJrGJHLL6-43" value="SELECT * FROM user WHERE user_email = ?" style="rounded=1;whiteSpace=wrap;html=1;shadow=0;labelBackgroundColor=none;strokeWidth=1;fontFamily=Verdana;fontSize=8;align=center;" parent="hsu4_0Md_M0oJrGJHLL6-42" vertex="1">
          <mxGeometry x="17.5" y="135" width="125" height="50" as="geometry" />
        </mxCell>
        <mxCell id="hsu4_0Md_M0oJrGJHLL6-44" value="&lt;font style=&quot;font-size: 8px;&quot;&gt;True&lt;/font&gt;" style="edgeStyle=orthogonalEdgeStyle;shape=connector;curved=0;rounded=1;orthogonalLoop=1;jettySize=auto;html=1;shadow=0;strokeColor=default;align=center;verticalAlign=middle;fontFamily=Helvetica;fontSize=8;fontColor=default;labelBackgroundColor=default;resizable=0;endArrow=classic;flowAnimation=0;entryX=0.5;entryY=0;entryDx=0;entryDy=0;" parent="hsu4_0Md_M0oJrGJHLL6-42" source="hsu4_0Md_M0oJrGJHLL6-47" target="hsu4_0Md_M0oJrGJHLL6-48" edge="1">
          <mxGeometry relative="1" as="geometry">
            <Array as="points">
              <mxPoint x="80" y="260" />
              <mxPoint x="37" y="260" />
            </Array>
          </mxGeometry>
        </mxCell>
        <mxCell id="hsu4_0Md_M0oJrGJHLL6-45" style="edgeStyle=orthogonalEdgeStyle;shape=connector;curved=0;rounded=1;orthogonalLoop=1;jettySize=auto;html=1;entryX=0.5;entryY=0;entryDx=0;entryDy=0;shadow=0;strokeColor=default;align=center;verticalAlign=middle;fontFamily=Helvetica;fontSize=8;fontColor=default;labelBackgroundColor=default;resizable=0;endArrow=classic;flowAnimation=0;" parent="hsu4_0Md_M0oJrGJHLL6-42" source="hsu4_0Md_M0oJrGJHLL6-47" target="hsu4_0Md_M0oJrGJHLL6-49" edge="1">
          <mxGeometry relative="1" as="geometry">
            <Array as="points">
              <mxPoint x="80" y="260" />
              <mxPoint x="115" y="260" />
            </Array>
          </mxGeometry>
        </mxCell>
        <mxCell id="hsu4_0Md_M0oJrGJHLL6-46" value="False" style="edgeLabel;html=1;align=center;verticalAlign=middle;resizable=0;points=[];rounded=1;shadow=0;strokeColor=default;strokeWidth=1;fontFamily=Helvetica;fontSize=8;fontColor=default;labelBackgroundColor=default;fillColor=default;" parent="hsu4_0Md_M0oJrGJHLL6-45" vertex="1" connectable="0">
          <mxGeometry x="0.3683" relative="1" as="geometry">
            <mxPoint x="-11" as="offset" />
          </mxGeometry>
        </mxCell>
        <mxCell id="hsu4_0Md_M0oJrGJHLL6-47" value="&lt;font face=&quot;Helvetica&quot;&gt;&lt;span style=&quot;text-wrap: nowrap;&quot;&gt;if (resultSet.next())&lt;/span&gt;&lt;/font&gt;" style="rhombus;whiteSpace=wrap;html=1;rounded=0;shadow=0;labelBackgroundColor=none;strokeWidth=1;fontFamily=Verdana;fontSize=8;align=center;" parent="hsu4_0Md_M0oJrGJHLL6-42" vertex="1">
          <mxGeometry x="34.379999999999995" y="210" width="91.25" height="40" as="geometry" />
        </mxCell>
        <mxCell id="hsu4_0Md_M0oJrGJHLL6-48" value="new User.Builder" style="whiteSpace=wrap;html=1;fontSize=8;fontFamily=Verdana;rounded=1;shadow=0;labelBackgroundColor=none;strokeWidth=1;" parent="hsu4_0Md_M0oJrGJHLL6-42" vertex="1">
          <mxGeometry x="10" y="270" width="55" height="40" as="geometry" />
        </mxCell>
        <mxCell id="hsu4_0Md_M0oJrGJHLL6-49" value="Optional.empty()" style="whiteSpace=wrap;html=1;fontSize=8;fontFamily=Verdana;rounded=1;shadow=0;labelBackgroundColor=none;strokeWidth=1;" parent="hsu4_0Md_M0oJrGJHLL6-42" vertex="1">
          <mxGeometry x="80" y="270" width="70" height="40" as="geometry" />
        </mxCell>
        <mxCell id="hsu4_0Md_M0oJrGJHLL6-50" value="" style="group" parent="hsu4_0Md_M0oJrGJHLL6-42" vertex="1" connectable="0">
          <mxGeometry x="-39" y="324" width="113" height="26" as="geometry" />
        </mxCell>
        <mxCell id="hsu4_0Md_M0oJrGJHLL6-51" value="&lt;div&gt;&lt;br&gt;&lt;/div&gt;" style="edgeStyle=orthogonalEdgeStyle;shape=connector;curved=0;rounded=1;orthogonalLoop=1;jettySize=auto;html=1;shadow=0;strokeColor=default;align=center;verticalAlign=middle;fontFamily=Helvetica;fontSize=8;fontColor=default;labelBackgroundColor=default;resizable=0;endArrow=classic;flowAnimation=0;entryX=1;entryY=0.5;entryDx=0;entryDy=0;" parent="hsu4_0Md_M0oJrGJHLL6-50" target="hsu4_0Md_M0oJrGJHLL6-41" edge="1">
          <mxGeometry relative="1" as="geometry">
            <mxPoint x="113" as="sourcePoint" />
            <mxPoint x="77" y="36" as="targetPoint" />
            <Array as="points">
              <mxPoint x="113" y="6" />
              <mxPoint x="29" y="6" />
              <mxPoint x="29" y="-164" />
            </Array>
          </mxGeometry>
        </mxCell>
        <mxCell id="hsu4_0Md_M0oJrGJHLL6-52" value="Optional&amp;lt;User&amp;gt;" style="endArrow=none;html=1;rounded=1;shadow=0;strokeColor=default;align=center;verticalAlign=middle;fontFamily=Helvetica;fontSize=8;fontColor=default;labelBackgroundColor=default;resizable=0;edgeStyle=orthogonalEdgeStyle;flowAnimation=0;curved=0;entryX=0.5;entryY=1;entryDx=0;entryDy=0;exitX=0.5;exitY=1;exitDx=0;exitDy=0;" parent="hsu4_0Md_M0oJrGJHLL6-42" source="hsu4_0Md_M0oJrGJHLL6-48" target="hsu4_0Md_M0oJrGJHLL6-49" edge="1">
          <mxGeometry width="50" height="50" relative="1" as="geometry">
            <mxPoint x="-30" y="300" as="sourcePoint" />
            <mxPoint x="20" y="250" as="targetPoint" />
          </mxGeometry>
        </mxCell>
        <mxCell id="hsu4_0Md_M0oJrGJHLL6-53" value="DB" style="swimlane;html=1;startSize=20;fontSize=14;" parent="hsu4_0Md_M0oJrGJHLL6-1" vertex="1">
          <mxGeometry x="1050.19" y="20" width="172.5" height="730" as="geometry" />
        </mxCell>
        <mxCell id="hsu4_0Md_M0oJrGJHLL6-54" value="&lt;span style=&quot;font-family: Verdana; font-size: 8px;&quot;&gt;Table user&lt;/span&gt;" style="strokeWidth=2;html=1;shape=mxgraph.flowchart.database;whiteSpace=wrap;" parent="hsu4_0Md_M0oJrGJHLL6-53" vertex="1">
          <mxGeometry x="62.5" y="185" width="47.5" height="38" as="geometry" />
        </mxCell>
        <mxCell id="hsu4_0Md_M0oJrGJHLL6-55" style="edgeStyle=orthogonalEdgeStyle;rounded=1;orthogonalLoop=1;jettySize=auto;html=1;entryX=1;entryY=0.5;entryDx=0;entryDy=0;shadow=0;flowAnimation=0;curved=0;exitX=0;exitY=0.85;exitDx=0;exitDy=0;exitPerimeter=0;" parent="hsu4_0Md_M0oJrGJHLL6-1" source="hsu4_0Md_M0oJrGJHLL6-54" target="hsu4_0Md_M0oJrGJHLL6-47" edge="1">
          <mxGeometry relative="1" as="geometry" />
        </mxCell>
        <mxCell id="hsu4_0Md_M0oJrGJHLL6-56" value="&lt;font style=&quot;font-size: 8px;&quot;&gt;ResultSet&lt;/font&gt;" style="edgeLabel;html=1;align=center;verticalAlign=middle;resizable=0;points=[];fontFamily=Helvetica;fontSize=11;fontColor=default;labelBackgroundColor=default;" parent="hsu4_0Md_M0oJrGJHLL6-55" vertex="1" connectable="0">
          <mxGeometry x="-0.5006" y="2" relative="1" as="geometry">
            <mxPoint x="-15" y="1" as="offset" />
          </mxGeometry>
        </mxCell>
        <mxCell id="hsu4_0Md_M0oJrGJHLL6-57" style="edgeStyle=orthogonalEdgeStyle;shape=connector;curved=0;rounded=1;orthogonalLoop=1;jettySize=auto;html=1;entryX=1;entryY=0.5;entryDx=0;entryDy=0;shadow=0;strokeColor=#FF0000;align=center;verticalAlign=middle;fontFamily=Helvetica;fontSize=8;fontColor=default;labelBackgroundColor=default;resizable=0;endArrow=classic;flowAnimation=0;exitX=0.5;exitY=1;exitDx=0;exitDy=0;" parent="hsu4_0Md_M0oJrGJHLL6-1" source="hsu4_0Md_M0oJrGJHLL6-41" target="hsu4_0Md_M0oJrGJHLL6-32" edge="1">
          <mxGeometry relative="1" as="geometry">
            <mxPoint x="804.4499999999999" y="210" as="sourcePoint" />
            <mxPoint x="864.6000000000001" y="311.0000000000001" as="targetPoint" />
          </mxGeometry>
        </mxCell>
        <mxCell id="hsu4_0Md_M0oJrGJHLL6-58" value="False" style="edgeLabel;html=1;align=center;verticalAlign=middle;resizable=0;points=[];rounded=1;shadow=0;strokeColor=default;strokeWidth=1;fontFamily=Helvetica;fontSize=8;fontColor=default;labelBackgroundColor=default;fillColor=default;" parent="hsu4_0Md_M0oJrGJHLL6-57" vertex="1" connectable="0">
          <mxGeometry x="0.3683" relative="1" as="geometry">
            <mxPoint y="-295" as="offset" />
          </mxGeometry>
        </mxCell>
        <mxCell id="hsu4_0Md_M0oJrGJHLL6-59" style="edgeStyle=orthogonalEdgeStyle;shape=connector;curved=0;rounded=1;orthogonalLoop=1;jettySize=auto;html=1;entryX=1;entryY=0.5;entryDx=0;entryDy=0;shadow=0;strokeColor=#FF0000;align=center;verticalAlign=middle;fontFamily=Helvetica;fontSize=8;fontColor=default;labelBackgroundColor=default;resizable=0;endArrow=classic;flowAnimation=0;" parent="hsu4_0Md_M0oJrGJHLL6-1" source="hsu4_0Md_M0oJrGJHLL6-54" target="hsu4_0Md_M0oJrGJHLL6-33" edge="1">
          <mxGeometry relative="1" as="geometry">
            <Array as="points">
              <mxPoint x="1126" y="680" />
            </Array>
          </mxGeometry>
        </mxCell>
        <mxCell id="hsu4_0Md_M0oJrGJHLL6-60" value="&lt;font style=&quot;font-size: 8px;&quot;&gt;True&lt;/font&gt;" style="edgeStyle=orthogonalEdgeStyle;shape=connector;curved=0;rounded=1;orthogonalLoop=1;jettySize=auto;html=1;shadow=0;strokeColor=default;align=center;verticalAlign=middle;fontFamily=Helvetica;fontSize=8;fontColor=default;labelBackgroundColor=default;resizable=0;endArrow=classic;flowAnimation=0;exitX=0.5;exitY=1;exitDx=0;exitDy=0;" parent="hsu4_0Md_M0oJrGJHLL6-1" source="hsu4_0Md_M0oJrGJHLL6-41" target="hsu4_0Md_M0oJrGJHLL6-35" edge="1">
          <mxGeometry x="-0.5304" relative="1" as="geometry">
            <mxPoint x="791.75" y="210" as="sourcePoint" />
            <mxPoint x="749.75" y="230" as="targetPoint" />
            <Array as="points">
              <mxPoint x="795" y="220" />
              <mxPoint x="750" y="220" />
              <mxPoint x="750" y="260" />
            </Array>
            <mxPoint as="offset" />
          </mxGeometry>
        </mxCell>
        <mxCell id="hsu4_0Md_M0oJrGJHLL6-61" value="" style="edgeLabel;html=1;align=center;verticalAlign=middle;resizable=0;points=[];rounded=1;shadow=0;strokeColor=default;strokeWidth=1;fontFamily=Helvetica;fontSize=8;fontColor=default;labelBackgroundColor=default;fillColor=default;" parent="hsu4_0Md_M0oJrGJHLL6-60" vertex="1" connectable="0">
          <mxGeometry x="0.7356" relative="1" as="geometry">
            <mxPoint as="offset" />
          </mxGeometry>
        </mxCell>
        <mxCell id="hsu4_0Md_M0oJrGJHLL6-62" value="return ResponseEntity.ok(&quot;Login successful&quot;);" style="edgeStyle=orthogonalEdgeStyle;shape=connector;curved=0;rounded=1;orthogonalLoop=1;jettySize=auto;html=1;entryX=1;entryY=0.75;entryDx=0;entryDy=0;shadow=0;strokeColor=default;align=center;verticalAlign=middle;fontFamily=Helvetica;fontSize=8;fontColor=default;labelBackgroundColor=default;resizable=0;endArrow=classic;flowAnimation=0;" parent="hsu4_0Md_M0oJrGJHLL6-1" source="hsu4_0Md_M0oJrGJHLL6-38" target="hsu4_0Md_M0oJrGJHLL6-8" edge="1">
          <mxGeometry x="-0.8974" relative="1" as="geometry">
            <Array as="points">
              <mxPoint x="635" y="605" />
            </Array>
            <mxPoint as="offset" />
          </mxGeometry>
        </mxCell>
        <mxCell id="hsu4_0Md_M0oJrGJHLL6-63" value="" style="edgeStyle=orthogonalEdgeStyle;shape=connector;curved=0;rounded=1;orthogonalLoop=1;jettySize=auto;html=1;entryX=1;entryY=0.75;entryDx=0;entryDy=0;shadow=0;strokeColor=default;align=center;verticalAlign=middle;fontFamily=Helvetica;fontSize=8;fontColor=default;labelBackgroundColor=default;resizable=0;endArrow=classic;flowAnimation=0;" parent="hsu4_0Md_M0oJrGJHLL6-1" source="hsu4_0Md_M0oJrGJHLL6-37" target="hsu4_0Md_M0oJrGJHLL6-8" edge="1">
          <mxGeometry x="-0.9536" y="-15" relative="1" as="geometry">
            <Array as="points">
              <mxPoint x="710" y="315" />
              <mxPoint x="710" y="617" />
              <mxPoint x="145" y="617" />
              <mxPoint x="145" y="605" />
            </Array>
            <mxPoint as="offset" />
          </mxGeometry>
        </mxCell>
        <mxCell id="hsu4_0Md_M0oJrGJHLL6-64" value="False" style="edgeLabel;html=1;align=center;verticalAlign=middle;resizable=0;points=[];rounded=1;shadow=0;strokeColor=default;strokeWidth=1;fontFamily=Helvetica;fontSize=8;fontColor=default;labelBackgroundColor=default;fillColor=default;" parent="hsu4_0Md_M0oJrGJHLL6-63" vertex="1" connectable="0">
          <mxGeometry x="-0.9532" relative="1" as="geometry">
            <mxPoint as="offset" />
          </mxGeometry>
        </mxCell>
        <mxCell id="hsu4_0Md_M0oJrGJHLL6-65" value="ResponseEntity&lt;div&gt;.status(HttpStatus.BAD_REQUEST)&lt;br&gt;&lt;/div&gt;" style="edgeLabel;html=1;align=center;verticalAlign=middle;resizable=0;points=[];rounded=1;shadow=0;strokeColor=default;strokeWidth=1;fontFamily=Helvetica;fontSize=8;fontColor=default;labelBackgroundColor=default;fillColor=default;" parent="hsu4_0Md_M0oJrGJHLL6-63" vertex="1" connectable="0">
          <mxGeometry x="-0.2064" y="1" relative="1" as="geometry">
            <mxPoint as="offset" />
          </mxGeometry>
        </mxCell>
        <mxCell id="hsu4_0Md_M0oJrGJHLL6-66" style="edgeStyle=orthogonalEdgeStyle;shape=connector;curved=0;rounded=1;orthogonalLoop=1;jettySize=auto;html=1;entryX=1;entryY=0.75;entryDx=0;entryDy=0;shadow=0;strokeColor=default;align=center;verticalAlign=middle;fontFamily=Helvetica;fontSize=8;fontColor=default;labelBackgroundColor=default;resizable=0;endArrow=classic;flowAnimation=0;" parent="hsu4_0Md_M0oJrGJHLL6-1" source="hsu4_0Md_M0oJrGJHLL6-32" target="hsu4_0Md_M0oJrGJHLL6-8" edge="1">
          <mxGeometry relative="1" as="geometry">
            <Array as="points">
              <mxPoint x="145" y="635" />
            </Array>
          </mxGeometry>
        </mxCell>
        <mxCell id="hsu4_0Md_M0oJrGJHLL6-67" value="ResponseEntity&lt;div&gt;.status(HttpStatus.BAD_REQUEST)&lt;/div&gt;" style="edgeLabel;html=1;align=center;verticalAlign=middle;resizable=0;points=[];rounded=1;shadow=0;strokeColor=default;strokeWidth=1;fontFamily=Helvetica;fontSize=8;fontColor=default;labelBackgroundColor=default;fillColor=default;" parent="hsu4_0Md_M0oJrGJHLL6-66" vertex="1" connectable="0">
          <mxGeometry x="-0.8522" relative="1" as="geometry">
            <mxPoint x="31" as="offset" />
          </mxGeometry>
        </mxCell>
        <mxCell id="hsu4_0Md_M0oJrGJHLL6-68" style="edgeStyle=orthogonalEdgeStyle;shape=connector;curved=0;rounded=1;orthogonalLoop=1;jettySize=auto;html=1;shadow=0;strokeColor=default;align=center;verticalAlign=middle;fontFamily=Helvetica;fontSize=8;fontColor=default;labelBackgroundColor=default;resizable=0;endArrow=classic;flowAnimation=0;entryX=1;entryY=0.75;entryDx=0;entryDy=0;exitX=0.5;exitY=1;exitDx=0;exitDy=0;" parent="hsu4_0Md_M0oJrGJHLL6-1" source="hsu4_0Md_M0oJrGJHLL6-33" target="hsu4_0Md_M0oJrGJHLL6-8" edge="1">
          <mxGeometry relative="1" as="geometry">
            <mxPoint x="210" y="550" as="targetPoint" />
            <Array as="points">
              <mxPoint x="635" y="720" />
              <mxPoint x="145" y="720" />
            </Array>
          </mxGeometry>
        </mxCell>
        <mxCell id="hsu4_0Md_M0oJrGJHLL6-69" value="ResponseEntity&lt;div&gt;.status(HttpStatus.UNAUTHORIZED)&lt;/div&gt;" style="edgeLabel;html=1;align=center;verticalAlign=middle;resizable=0;points=[];rounded=1;shadow=0;strokeColor=default;strokeWidth=1;fontFamily=Helvetica;fontSize=8;fontColor=default;labelBackgroundColor=default;fillColor=default;" parent="hsu4_0Md_M0oJrGJHLL6-68" vertex="1" connectable="0">
          <mxGeometry x="-0.9436" y="-3" relative="1" as="geometry">
            <mxPoint as="offset" />
          </mxGeometry>
        </mxCell>
      </root>
    </mxGraphModel>
  </diagram>
</mxfile>
